<mxfile host="Electron" modified="2024-05-20T11:51:38.058Z" agent="Mozilla/5.0 (Macintosh; Intel Mac OS X 10_15_7) AppleWebKit/537.36 (KHTML, like Gecko) draw.io/24.4.0 Chrome/120.0.6099.109 Electron/28.1.0 Safari/537.36" etag="Dsng_xX_e1maryoNkWXx" version="24.4.0" type="device">
  <diagram name="Page-1" id="47PZcJFGCzKp1bN4N55n">
    <mxGraphModel dx="1079" dy="826" grid="1" gridSize="10" guides="1" tooltips="1" connect="1" arrows="1" fold="1" page="1" pageScale="1" pageWidth="827" pageHeight="1169" math="0" shadow="0">
      <root>
        <mxCell id="0" />
        <mxCell id="1" parent="0" />
        <mxCell id="6Z3zlA4Bw8Ika2yX3QF1-17" value="SageMaker Studio Domain" style="fillColor=none;strokeColor=#5A6C86;dashed=1;verticalAlign=top;fontStyle=0;fontColor=#5A6C86;whiteSpace=wrap;html=1;align=left;spacing=4;spacingLeft=2;spacingRight=2;" vertex="1" parent="1">
          <mxGeometry x="160" y="360" width="400" height="100" as="geometry" />
        </mxCell>
        <mxCell id="6Z3zlA4Bw8Ika2yX3QF1-15" value="Prompt Engineering Demo App" style="fillColor=none;strokeColor=#5A6C86;dashed=1;verticalAlign=top;fontStyle=0;fontColor=#5A6C86;whiteSpace=wrap;html=1;align=left;spacing=4;spacingLeft=2;spacingRight=2;" vertex="1" parent="1">
          <mxGeometry x="160" y="160" width="400" height="180" as="geometry" />
        </mxCell>
        <mxCell id="6Z3zlA4Bw8Ika2yX3QF1-9" style="edgeStyle=orthogonalEdgeStyle;rounded=0;orthogonalLoop=1;jettySize=auto;html=1;exitX=1;exitY=0.5;exitDx=0;exitDy=0;exitPerimeter=0;" edge="1" parent="1" source="6Z3zlA4Bw8Ika2yX3QF1-1" target="6Z3zlA4Bw8Ika2yX3QF1-3">
          <mxGeometry relative="1" as="geometry" />
        </mxCell>
        <mxCell id="6Z3zlA4Bw8Ika2yX3QF1-1" value="CloudFront&lt;div&gt;Distribution&lt;/div&gt;" style="sketch=0;points=[[0,0,0],[0.25,0,0],[0.5,0,0],[0.75,0,0],[1,0,0],[0,1,0],[0.25,1,0],[0.5,1,0],[0.75,1,0],[1,1,0],[0,0.25,0],[0,0.5,0],[0,0.75,0],[1,0.25,0],[1,0.5,0],[1,0.75,0]];outlineConnect=0;fontColor=#232F3E;fillColor=#8C4FFF;strokeColor=#ffffff;dashed=0;verticalLabelPosition=bottom;verticalAlign=top;align=center;html=1;fontSize=12;fontStyle=0;aspect=fixed;shape=mxgraph.aws4.resourceIcon;resIcon=mxgraph.aws4.cloudfront;spacing=4;spacingLeft=2;spacingBottom=0;spacingRight=2;" vertex="1" parent="1">
          <mxGeometry x="200" y="240" width="40" height="40" as="geometry" />
        </mxCell>
        <mxCell id="6Z3zlA4Bw8Ika2yX3QF1-25" style="edgeStyle=orthogonalEdgeStyle;rounded=0;orthogonalLoop=1;jettySize=auto;html=1;exitX=1;exitY=0.5;exitDx=0;exitDy=0;exitPerimeter=0;entryX=0;entryY=0.5;entryDx=0;entryDy=0;dashed=1;" edge="1" parent="1" source="6Z3zlA4Bw8Ika2yX3QF1-2" target="6Z3zlA4Bw8Ika2yX3QF1-24">
          <mxGeometry relative="1" as="geometry" />
        </mxCell>
        <mxCell id="6Z3zlA4Bw8Ika2yX3QF1-2" value="ECS Fargate&lt;div&gt;Service&lt;/div&gt;" style="sketch=0;points=[[0,0,0],[0.25,0,0],[0.5,0,0],[0.75,0,0],[1,0,0],[0,1,0],[0.25,1,0],[0.5,1,0],[0.75,1,0],[1,1,0],[0,0.25,0],[0,0.5,0],[0,0.75,0],[1,0.25,0],[1,0.5,0],[1,0.75,0]];outlineConnect=0;fontColor=#232F3E;fillColor=#ED7100;strokeColor=#ffffff;dashed=0;verticalLabelPosition=bottom;verticalAlign=top;align=center;html=1;fontSize=12;fontStyle=0;aspect=fixed;shape=mxgraph.aws4.resourceIcon;resIcon=mxgraph.aws4.fargate;spacing=4;spacingLeft=2;spacingBottom=0;spacingRight=2;" vertex="1" parent="1">
          <mxGeometry x="380" y="240" width="40" height="40" as="geometry" />
        </mxCell>
        <mxCell id="6Z3zlA4Bw8Ika2yX3QF1-3" value="ALB" style="sketch=0;outlineConnect=0;fontColor=#232F3E;gradientColor=none;fillColor=#8C4FFF;strokeColor=none;dashed=0;verticalLabelPosition=bottom;verticalAlign=top;align=center;html=1;fontSize=12;fontStyle=0;aspect=fixed;pointerEvents=1;shape=mxgraph.aws4.application_load_balancer;spacing=4;spacingLeft=2;spacingBottom=0;spacingRight=2;" vertex="1" parent="1">
          <mxGeometry x="280" y="240" width="40" height="40" as="geometry" />
        </mxCell>
        <mxCell id="6Z3zlA4Bw8Ika2yX3QF1-5" value="Cognito&lt;div&gt;User Pool&lt;/div&gt;" style="sketch=0;points=[[0,0,0],[0.25,0,0],[0.5,0,0],[0.75,0,0],[1,0,0],[0,1,0],[0.25,1,0],[0.5,1,0],[0.75,1,0],[1,1,0],[0,0.25,0],[0,0.5,0],[0,0.75,0],[1,0.25,0],[1,0.5,0],[1,0.75,0]];outlineConnect=0;fontColor=#232F3E;fillColor=#DD344C;strokeColor=#ffffff;dashed=0;verticalLabelPosition=middle;verticalAlign=middle;align=left;html=1;fontSize=12;fontStyle=0;aspect=fixed;shape=mxgraph.aws4.resourceIcon;resIcon=mxgraph.aws4.cognito;labelPosition=right;spacing=4;spacingLeft=2;spacingBottom=0;spacingRight=2;" vertex="1" parent="1">
          <mxGeometry x="440" y="180" width="40" height="40" as="geometry" />
        </mxCell>
        <mxCell id="6Z3zlA4Bw8Ika2yX3QF1-23" style="edgeStyle=orthogonalEdgeStyle;rounded=0;orthogonalLoop=1;jettySize=auto;html=1;" edge="1" parent="1" source="6Z3zlA4Bw8Ika2yX3QF1-7" target="6Z3zlA4Bw8Ika2yX3QF1-16">
          <mxGeometry relative="1" as="geometry">
            <Array as="points">
              <mxPoint x="90" y="320" />
              <mxPoint x="90" y="390" />
            </Array>
          </mxGeometry>
        </mxCell>
        <mxCell id="6Z3zlA4Bw8Ika2yX3QF1-7" value="User Web&lt;div&gt;Apps&lt;/div&gt;" style="sketch=0;outlineConnect=0;fontColor=#232F3E;gradientColor=none;fillColor=#232F3D;strokeColor=none;dashed=0;verticalLabelPosition=bottom;verticalAlign=top;align=center;html=1;fontSize=12;fontStyle=0;aspect=fixed;pointerEvents=1;shape=mxgraph.aws4.client;spacing=4;spacingLeft=2;spacingBottom=0;spacingRight=2;" vertex="1" parent="1">
          <mxGeometry x="20" y="300" width="41.05" height="40" as="geometry" />
        </mxCell>
        <mxCell id="6Z3zlA4Bw8Ika2yX3QF1-8" style="edgeStyle=orthogonalEdgeStyle;rounded=0;orthogonalLoop=1;jettySize=auto;html=1;entryX=0;entryY=0.5;entryDx=0;entryDy=0;entryPerimeter=0;" edge="1" parent="1" source="6Z3zlA4Bw8Ika2yX3QF1-7" target="6Z3zlA4Bw8Ika2yX3QF1-1">
          <mxGeometry relative="1" as="geometry">
            <Array as="points">
              <mxPoint x="90" y="320" />
              <mxPoint x="90" y="260" />
            </Array>
          </mxGeometry>
        </mxCell>
        <mxCell id="6Z3zlA4Bw8Ika2yX3QF1-10" style="edgeStyle=orthogonalEdgeStyle;rounded=0;orthogonalLoop=1;jettySize=auto;html=1;entryX=0;entryY=0.5;entryDx=0;entryDy=0;entryPerimeter=0;" edge="1" parent="1" source="6Z3zlA4Bw8Ika2yX3QF1-3" target="6Z3zlA4Bw8Ika2yX3QF1-2">
          <mxGeometry relative="1" as="geometry" />
        </mxCell>
        <mxCell id="6Z3zlA4Bw8Ika2yX3QF1-13" value="User Authentication" style="edgeStyle=orthogonalEdgeStyle;rounded=0;orthogonalLoop=1;jettySize=auto;html=1;exitX=0.5;exitY=0;exitDx=0;exitDy=0;exitPerimeter=0;entryX=0;entryY=0.5;entryDx=0;entryDy=0;entryPerimeter=0;align=right;spacing=4;" edge="1" parent="1" source="6Z3zlA4Bw8Ika2yX3QF1-2" target="6Z3zlA4Bw8Ika2yX3QF1-5">
          <mxGeometry x="-0.3328" relative="1" as="geometry">
            <Array as="points">
              <mxPoint x="400" y="200" />
            </Array>
            <mxPoint as="offset" />
          </mxGeometry>
        </mxCell>
        <mxCell id="6Z3zlA4Bw8Ika2yX3QF1-14" value="LLM API Calls" style="edgeStyle=orthogonalEdgeStyle;rounded=0;orthogonalLoop=1;jettySize=auto;html=1;exitX=1;exitY=0.5;exitDx=0;exitDy=0;exitPerimeter=0;verticalAlign=bottom;entryX=0;entryY=0.25;entryDx=0;entryDy=0;entryPerimeter=0;" edge="1" parent="1" source="6Z3zlA4Bw8Ika2yX3QF1-2" target="6Z3zlA4Bw8Ika2yX3QF1-4">
          <mxGeometry x="-0.25" relative="1" as="geometry">
            <mxPoint x="620" y="260" as="targetPoint" />
            <mxPoint as="offset" />
          </mxGeometry>
        </mxCell>
        <mxCell id="6Z3zlA4Bw8Ika2yX3QF1-16" value="SageMaker Studio&lt;div&gt;Space&lt;/div&gt;" style="sketch=0;outlineConnect=0;fontColor=#232F3E;gradientColor=none;fillColor=#01A88D;strokeColor=none;dashed=0;verticalLabelPosition=bottom;verticalAlign=top;align=center;html=1;fontSize=12;fontStyle=0;aspect=fixed;pointerEvents=1;shape=mxgraph.aws4.sagemaker_notebook;labelPosition=center;spacing=4;spacingLeft=2;spacingRight=2;" vertex="1" parent="1">
          <mxGeometry x="382.57" y="370" width="34.87" height="40" as="geometry" />
        </mxCell>
        <mxCell id="6Z3zlA4Bw8Ika2yX3QF1-19" style="edgeStyle=orthogonalEdgeStyle;rounded=0;orthogonalLoop=1;jettySize=auto;html=1;entryX=0;entryY=0.75;entryDx=0;entryDy=0;entryPerimeter=0;" edge="1" parent="1" source="6Z3zlA4Bw8Ika2yX3QF1-16" target="6Z3zlA4Bw8Ika2yX3QF1-4">
          <mxGeometry relative="1" as="geometry">
            <Array as="points">
              <mxPoint x="600" y="390" />
              <mxPoint x="600" y="280" />
            </Array>
          </mxGeometry>
        </mxCell>
        <mxCell id="6Z3zlA4Bw8Ika2yX3QF1-21" style="edgeStyle=orthogonalEdgeStyle;rounded=0;orthogonalLoop=1;jettySize=auto;html=1;entryX=0;entryY=0.5;entryDx=0;entryDy=0;entryPerimeter=0;" edge="1" parent="1" source="6Z3zlA4Bw8Ika2yX3QF1-16" target="6Z3zlA4Bw8Ika2yX3QF1-20">
          <mxGeometry relative="1" as="geometry" />
        </mxCell>
        <mxCell id="6Z3zlA4Bw8Ika2yX3QF1-22" value="AWS Cloud" style="points=[[0,0],[0.25,0],[0.5,0],[0.75,0],[1,0],[1,0.25],[1,0.5],[1,0.75],[1,1],[0.75,1],[0.5,1],[0.25,1],[0,1],[0,0.75],[0,0.5],[0,0.25]];outlineConnect=0;gradientColor=none;html=1;whiteSpace=wrap;fontSize=12;fontStyle=0;container=1;pointerEvents=0;collapsible=0;recursiveResize=0;shape=mxgraph.aws4.group;grIcon=mxgraph.aws4.group_aws_cloud_alt;strokeColor=#232F3E;fillColor=none;verticalAlign=top;align=left;spacingLeft=30;fontColor=#232F3E;dashed=0;" vertex="1" parent="1">
          <mxGeometry x="120" y="120" width="620" height="360" as="geometry" />
        </mxCell>
        <mxCell id="6Z3zlA4Bw8Ika2yX3QF1-4" value="Amazon Bedrock" style="sketch=0;points=[[0,0,0],[0.25,0,0],[0.5,0,0],[0.75,0,0],[1,0,0],[0,1,0],[0.25,1,0],[0.5,1,0],[0.75,1,0],[1,1,0],[0,0.25,0],[0,0.5,0],[0,0.75,0],[1,0.25,0],[1,0.5,0],[1,0.75,0]];outlineConnect=0;fontColor=#232F3E;fillColor=#01A88D;strokeColor=#ffffff;dashed=0;verticalLabelPosition=bottom;verticalAlign=top;align=center;html=1;fontSize=12;fontStyle=0;aspect=fixed;shape=mxgraph.aws4.resourceIcon;resIcon=mxgraph.aws4.bedrock;spacing=4;spacingLeft=2;spacingBottom=0;spacingRight=2;" vertex="1" parent="6Z3zlA4Bw8Ika2yX3QF1-22">
          <mxGeometry x="520" y="130" width="40" height="40" as="geometry" />
        </mxCell>
        <mxCell id="6Z3zlA4Bw8Ika2yX3QF1-20" value="S3 Data&lt;div&gt;Bucket&lt;/div&gt;" style="sketch=0;points=[[0,0,0],[0.25,0,0],[0.5,0,0],[0.75,0,0],[1,0,0],[0,1,0],[0.25,1,0],[0.5,1,0],[0.75,1,0],[1,1,0],[0,0.25,0],[0,0.5,0],[0,0.75,0],[1,0.25,0],[1,0.5,0],[1,0.75,0]];outlineConnect=0;fontColor=#232F3E;fillColor=#7AA116;strokeColor=#ffffff;dashed=0;verticalLabelPosition=bottom;verticalAlign=top;align=center;html=1;fontSize=12;fontStyle=0;aspect=fixed;shape=mxgraph.aws4.resourceIcon;resIcon=mxgraph.aws4.s3;" vertex="1" parent="6Z3zlA4Bw8Ika2yX3QF1-22">
          <mxGeometry x="520" y="250" width="40" height="40" as="geometry" />
        </mxCell>
        <mxCell id="6Z3zlA4Bw8Ika2yX3QF1-24" value="OpenAI Models" style="shape=image;verticalLabelPosition=middle;labelBackgroundColor=default;verticalAlign=middle;aspect=fixed;imageAspect=0;image=data:image/png,iVBORw0KGgoAAAANSUhEUgAABdwAAAXcCAMAAAAP67xWAAAAY1BMVEUQo38AAAAQo38Qo38Qo38Qo38Qo38Qo38Qo38Qo38Qo38Qo38Qo38Qo38Qo38Qo38Qo3/8/Pzt9vTf8ezQ6+XB5t2y4NWk282V1cWG0L53yrZpxK5av6ZLuZ48tJYuro8fqYfQ5qRZAAAAEXRSTlP/ABAgMEBQYHCAj5+vv8/f7+aURvEAAGkCSURBVHja7N0NbtNAEIBR/2Rjrx3Hvv9piYQqCgQoaikz6/cO8Wk06113PU9dSrnWWtft4d4Bgdy3h7XWei3l0vNU1/NKKXNdtm3vgDT2bVvqXErPC3F/cSm1blsHpLZtdTbLP4h7P5S5GtShLftW5zL053biuJdp2Y4OaNSxLdOJVzWnjPtQ6s0hKZzC/VbPOcSfLu5lXm1h4GT2dT7dDH+muA/XxZkpnNa2XM80wp8l7uNkYAf2dRr7czhD3AdhB14H/gwTfPNxvy6OToEf3Jdr37im4z7Otw7gqdvc9Iam3biXxS4G+K19afcjmjbjPkyr60nAGxytbuAbjPswWcYAf+HWYt9bi7uyA/reWtyVHdD3h7bifl07gHdYG/pAspW4XxYnqMC7HUsrz8E3Efdh9tUj8EH2uYn1TANxv1q0Ax/q1sB6Jnvcx2poBz7cXrNfX80dd0M7YHz/We6427QDtu9PZY776IEB4F871rTbmaRxL36pBHyKLenbYinjPtnHAJ9mn/qE8sV9qPYxwKc6ar7le7a4j26iAp/vWLIt33PFffR8DPCfJDtbzRR3aQeek/fvpYq7tAO/Ju+vJYq7tAO/J+/fpIm7tAN/Ju8vksRd2oG3kfevUsR9qB3AW/nu/SFD3F1ZAuI5ah9c8Lh7aACIKfqjBKHjXu4dQFD30E+KBY776E8cQGi3wCerYePuHBWIL+7JatS4T85RgQSOqKv3mHG/+BcHkMR26cMJGvdh6QDSWIY+mJhxt5EBcgm3m4kY99FGBkhnG/tIAsbdNzJASrUPJFzciwupQFJ76cOIFHcHqUBycQ5WA8Xd2A6kF2Z4DxN3YzvQhCDDe5S4G9uBRoQZ3rsv7N3betpYDAZQiUBO5ABJSErI6f2fcqadttNQkhgwtre91rWv/0+fpC1n65TtQI90pHiPbJuyHeiVbhTvkS2z2w70zVm2L7JtY3/kAHrmapxti2zZqUsyQO/MTrNlka0a+dsS0EsXo2xVZJsmynagp1qeq0a2xSQV6LezbFFka0aO+wK9djnK1kS2QksGGIDZJNsS2QYtGWAYzrIlkc2zJQMMRltbM5FtGLs3AAzE9TjbENk0v8AGBqWd32dHNs8JSGBQzrN5kY2yAQkMUAs7kZFN0m4HBqn5xntks46124EBmh1nsyKbY7sdGK7TbFRkk6YBMFDTbFJkc0Z+ywEM2NUomxPZDL9cAgavyR80RTZlbJQKDNxsnE2JbMhJAAzeSTYksgGyHaDZdI88PGsyAA0vzUQemmwHaDzdIw/MNRmA5i/NRB6W9XaAFhbeIw9FtgO0lu6Rh+QKJEArVyIjD8jTJYB2njNF1k+2A7Sc7pF1k+0Arad7ZL1kO0AH0j2yTrIdoBPpHlkf2Q7QkXSPrItsB+hMukfWQ7YDdCjdI+sg2wE6le6R+5PtAB1L98h9yXaAzqV75H5kO0AH0z1yH7IdoJPpHlm7kTuQAC1fAI6sifvtAN1J98jdyHaADqd7ZM38LxVga5dZs8h6TQOArU2zXpHbk+0AHU/3yDqdBAA7Ock6RW5HtgMUkO6R9RkHAJ14zBS5PQ9TATqe7pFbsuAO0P1198i6yHaAPV1lXSK3YAkSoIyFyMh6nAYAezvNekTW4jgAqMFx1iKyCosyAD+UsjITuQUX3AEO7XqUNYiszCVIgO9KuBAZub/zAKA257m/yApclAH4U/evzER+wjAV4C9FDFUjP2aYCrBJAUPVyD1dBAA1u8g9Re7nLACo3VnuJ3IvkwDgACa5l8h9jAxTAQ5iNsp9RG7m9RLAp7r9lilynYY7wNc63naPfE/DHaCSbrfdI9fZcAeootPb7pFrbLgDVNPlbffIjfx7CeBr3f0vU+R7TsoAVNXhIzORO7oKAA7sKncU+YstSIBtdXYfMvI/tiABdtDVfcjIH2xBAuygs/uQke/4sR7Adrr5071ITRmALpvsE+5uQQJ00/Vox3D3NBWgw6a5vdCUAei4SW4tbMoAdNwOjZmwKQPQdee5rdCUAei8ycHDXVMGoHHXuaVwUwag+84OG+7jAKAF44OG+2UA0ILLQ4b7SQDQipPcRrg7AFCC2ehg4T4NAFoyzS2EFXeAMkyyuvDbVIAyXGV1YZoKUIiTrCxMUwEKscVMNRwMAyjFef3hfhQAtOwoKwpvUwGKcZkVhTVIgHJMsppw6RegHNdZTViDBCjISVYS1iABClJxHTL8ogOgJGdZRSjcAUpSrXQP1yABijLNCsL7JYCyHOXXQuEOUJZpfi38FBugMEf5pXB4AKAwl/mlcHgAoDST/Eoo3AFKc5lfCYU7QHEm+YVQuAMU5zK/EAp3gPJM8nOhcAcoz2V+LhTuAAWa7BXuFwFAB13kp8JVGYASHeVnwlUZgBJN8zOhcAco0lF+IhTuAEWa5ifCD5gAijQb5cfCn1Ppptfn5+flv+4X3803uV189+3fj1bPzy8BQ3O2Y7gr3Gncy/NquVwsbue7uPme9I/PzwHDMNst3E8CmvL6/Li8X9zMa7JYLJdqefrvZKdwvw44vOfV8v5ufhh3i+VKHU+PXeeHwuUB2vL6tLy/nR/e7WL5pIqnnyb5kXAyjBa8rL4t5s1afFtJeHrnMj8SHjDRrLen5abeelMJ//Qa0CNH+YHwgInmvKwebudtu314VMLTG9P8QHjARDNeHu9v5l1xcy/g6YcPHzKFPUgO73XVYLBXD/iVFg3lO8nNwh4kh+6xf7udd9Xtt6eAol3nZmEPkgN6fbyfd939owKekk1yozBO5VBeOlyyrxfwOvAUa7pNuI8C9vP0cDMvye2DBg2FGm0R7qcBA0r2/9zId4p0mpuEcSqSXb5TsuvcJIxTqdNLwcmu/06hJrlBGKdSm9diJqifu7U/Q1GmuUF4nUo93lZ38/64XwWUYuMr1fA6lTo8F9+OWXejPUMxTvJv4dgve3t77Ec7Zt3d6i2gAJf5t3Dsl72L9nlv3XzTfacER5XC/Sygsl512jdZWI6k+87yL2HJnd29LvvWad+8PKM7Q8ddVwn3ccDg+zHrb5t0Z+i2cYVwPw+oYLWYD8nDc0B3nVcId0vuVLDq537MZxbine6afR3uxwFfeBtEq/1vt1420VnHuSacHkC0i3eKN801oSuDaBfvFG+Wa0JXBtEu3infcb4XujKIdvFO+ab5XujKINrFO+Wb5XuhK0M1ov2dO4uRdMxxvhO6Mthrt/dOD0zznXBXhq89i/ZNHCWgS67znXBXhq+8DOvQwDaWTorRHeP8U7grw+feBnMebBc3Jqt0xvkn4X4VYI5qskqRrvJP4R9MaLbv517rnW44+jDcTwP+8KrZXsnNMqADTj8M94uA396Wcyq61ZuhAy4+DPcAHZnd3NuboX35h/A8lU3e7uds5eYxoGXH+b+wCMkGj3ZktrcwWKVl5/m/8DwVg9S6GKzSruv8X1iEZJ1B6s7uXgJadJS/hUVI3nu5m6N4p0yn+VtYhETZrninJy7yt/CfDpTtind6Ypa/hYuQKNsV7/TFOH8JLXcsydh5py9O85fQcuenld32+iw8WKUVF/lLaLnjSeoB3DwFNG+Wv4SWOy7JHMS3gOaN86fQcsck9TDunCOgeaf5U2i5E28mqf7BR09c5E+h5c6TSeqhPJir0rBZ/hRa7oOnJaM1Q4+M18L9JBgmLRlbM/TKyVq4T4NBetGScY2AXpmuhftVMESPczxooleu3of7KBigt4c5Dbh1a4YGjd6F+yQYnlcnIP9jJ5I+mbwL97NgcJ6123/SeKdPzvKH8IRpqFZzGnSv8U5DLvKH8IRpoLTb19h4pydm+UP4N/Yg2W5v3o2xKs04+iPcj4NB8Te9DYxV6Ynj/C7MUwfIy6WW+EETTTjL78I8dXj8cqk1DwEHd/FHuF8Hw+FV6meciaR41/ldeJ86NNZkWnUn3fmHvXvRbRwEojA8bJvtRYqqAWOMMdjv/5Sbdru9qOkmUWMDw/neoIr018YDrO6XOiDsT20M2n4CRiKhejt1QLhirylL9WMyuvoPBhiJhLXdv8X9kaANlbXdWDt4H+IBHTHHGCfvvbV1/VmoO6zs8S3ue4Im1DLebnvvY6SLpBi8s3U81utIACvaqwPC4QPtKH+83Vgf4kI/ESffl/8/DNuZYPUDCAjDMs0ou+12CJGuJk2+7Kd41B3WHpchDMu0oty2d0NItIJ58uUeoYO6w8rjMoRhmUaUeXq77n2kVaXRGb4Q6g6Vu1dKEYZl2hC4OLofE21iDhcGHnWHuj0qpQjDMk0IXJjOR9pUGns+H+oOVdsrpQgny7QgcEm0CwvlMA2Gz4S6Q82eXuNOIFzgcpghUkZp7PgsqDvU7G/cbwlkC1wKMyTKbj6v76g7VOxWKcIkpHiBT2um7Bf0HXWHeu2UIlzDJN3EJdAuUVFmb/gE1B2qdY+4y5c059cHKlBymv8LdYdaPShFmISUrYC2m7HcE8yD5ewCXSLFGEf/zB7h/LMYI44ma9wecZcuf9v7wjMzD5rz0olOiTG8xJwv0lk7PJcedz816DnumISULHfbjS/3of1d6PiEXHWPkx9sxz9mrPMh1vBbwLUg7rItmnPqqllOjo5zOV73NK1yOH1nfSj8TQquF3eMucu1dPy95tdjPpu95nzMQv/M659Hb5D4Btwqwpi7WFnb7qpbA1hGw9l0CxGlMFjeTOdGFF6wnSJ1RyBTz7loX+c3vGA4l+5I17cpPC50lelOEcbcpXJ8DNJeat7zsX6q9xeDbzwg7mJ5/gppP20q/wLWNXQDAi/LgyKMucsU+AukHU/vCHwz9oi7UJGzEJD2pvPObD3W4GXYK8JVHRIlzV9gQuYCodjbxF/IvEsFrulJEfYwCbQY3p6Vk/aDxTecd+YOQzTVQ9wlyjHgbsTNTM+Om2YG9L1qim4IpHG8NT2SQMly24ybCGp1Q9igKo7nrQ1S12gb/rL6Sjtxr2St2CHu4ky8MSv49X3x3Dysz9RpR78JREmaP8KKDNZmZN+3At/GHRtUZVk63lQvdUUGY5GfWcxHVuYBcRfG8jvMyFzH0jMwa4flmZog7sJ4/gAfUq9lav7D6h/27i27dR2Hoih+645RH6DekiWx/62sPG/ixHIklyQTxJo9OCcJDIPg5rui9/ITz8B/5B9BPi76ibZ9V7FVvGF7xop/hGiZjMxBP9C2722kef9QMn034b8U94zEUt/RtjN5P1JoWZ5JH8U9J42epvHYvF1YmzH6Qq5LFPeMDHqW4PRWemTn/Us5CFJGcc/HFPQL+Y/H6BXszthAac/GeQP3ThybOFfN7OEtIHWNniM4H7ZyrsrZKnAtjw33ilaN0Uy2D3AB2+Wy4d4KGM1Q3oFvcoiU8bolw9YM5R24LY9ImZLgqE+kEXDzATjBpG9I9/2OHOAf2JwBrImFqrIB+R2D92uUd8CiVo8XuI9ITuSfCn5LgB2NerzAuP1az1iGQDnA/lCmZBmCxzsIpwCu5DCU4ebSlZlNSJL+gRyGMo2AYfsGoRcA6Q9luJXKDuRWJaN3IPmhDAsQ34ylgktNQA5DGWr7l5lESGYzgEgOQxnW27/ETkFcBfDBdqYM6+1fBtYf2ZsBvpjOlKG2/2tk/fERBTmiwCMqavs5YqMgbg74YvpJIGr7p471Rx4BAM4TA7X9DVkDaaN5B7ZpqO0nmBi207wDV2yvuFPbyRqgeQeeoqS2vyLY1wSad2Ctntp+tJFhOzvvwA/GT1OJfSLYlwurwE2mT1PJHCBr4AikzQB/mqjtQrCvObz6Avylor8i2NegwMAPuOvCu0vHmckaOFAnAJYV1PajRLIGGM0Ay8yuQZbO//QI9mU0AywyvAZZ+K7tZA2oMpoB7rL5RIfvy0sE+34gjQC4wXTj7voLM8P2L1xoAm6yen/J84I7WQPXyJoBzjazKEPWQAYYvANnNe6leEWw728M3oErhhv34PZvjWDf5yhnAXB84+71iIusgTt4pRf4ZDYxzOlh6lwr7iOjDnhnMzHM52Eqwb5/4FgV+M7gw6k+UwcI9l2JnDrgaDXDz92MrD+uR5oRYHJVxuHok2Df1ViaAcToqozDr8ZkDWzA0gxgs3H3FwV5IWtgJao7IGK2cff2p2U92Lesqqp7NYzf9d2Ltqoqg59cDueCwDcz22iOg33Lqun6cYyyxjyOXVcbKvNUd7jW6hEqccVe1kBZd8MY5THz2HcmajzVHY7FoAcIrnYVbAX7FnV3mWQP05B8iXd4qg8c+gBTL34YCvYtm36UncWxqxOu8FR3uFUwlPGRNVB1Y5SjxEuX6kcc1R1ODQxl8s8aCHU/yfHGNAs81R0+lQxlMg/2rbpJzjN2pW5AdQcsRYZ5GcqkH+xbNBc5Xbw0ha5FdQfsRIY5GcrE1LMGyn6SZ5lWN/BUd8DMBSYfQ5kh4Q2RF3U/y3PNfaVrUN0BIxeYXLyInXbWQD1ESUEcKv0b1R3YXyBTJrusgbKfJR1zX+pfqO6AhT3IVrKX8LC9aGdJzdwWeh/VHUh/DzJkH/SbcLBvc5E0XRq9j+oO7GkiqSmjrIGiT/lzNfaF3kF1BxIPcs98xT22mqh6lNSNjf6FjEgg1TzI9EtMjsG+obNxtSB2hS6hugMpH6dm/cU31WDfwlLJGkpdQHUH0j1Ozfk0NdWsgcral6Wx1lV4/BF40MzTevaDfRtrpf3V3OhdvJoNJHY7tci2cU802LexMWp/uLwTRw08IjDQXGlMc/3RbGl/buxamW0LAry76N4KydKcZtaA6dK+vrwTfgRsVbMGmXQJyry03/3Y5DIT8LjI/SW7WQNVLqeCa8o7+UfAJgONu9Vg3zKn/+mF/2LW3YFHVTTuNoN9TV1ZSvYd2ly++gC/zDTuJrMGQpfhrscQ9CfW3YEH9TTuFrMGsjhHXXlFjIVI4BEljbu9YF9zSQMp/4fXAuRopnE3F+wbchu2/7WXxMoMsF1P424tayDHYfvdj1RWZoAHlDTuS8ZSE1TnOWy/NpV6hUNVYKuZJshUsG9Wm+0PPz1O0B1w3zS0JakyhrIGQi9uzJUu4lFIYFEcuyowvVwyFJqg1ld/2QddwgMEwC3x0pZ6jCA5SDPYt/IwbF/bvPPmL3CjsNP/WMwacFl8Ov3C0x3Aoqmr9FgZzA3SHLbn8KmZ+NoM4e4wKg5N0FfEY9sL9m0y+NBMf+edu0wwaOpLfUXCnsVg32wy2x9zCXqSiwCmTG2hr/hiazJroHBfcuZSzxH8fkGCQZerYQy3uAn2tajVD2y7A3crO3uQBPva8jmaYdsdEJnaoFc4kLKWNZBxsG+qoxnfxxuwYO4KPZ3ZLjN2+iiCfT9kcvuAkBkkLQ6V3sJxKsG+hvX6hm1euDUuD9o5TiXY17Ax6Bv2IeFR7Atdwh7ZDXOjDyHY95YcBu82f4+Ru7HRRXyfJdjXvFjrK55UhS9xKHQRX2ftZA04C/bdptHj8dmKpMxt0G3cv9KRaNYAw/a7Bn1BPiTcGGv9C0vuBPtmYQiqXFSFE0Opa3D7g2DfHEyBwQxcWLcfw1TGQtYAw/ZVpoKNGeRv5boHU5nv5jSH7ca++zxRLNmYQeY2nKIylSHYNx+xZPcLOZsbXYmpTOJZAwT7bhRLBjPI1rbSzlQm5awBgn03iw2/0cjTttLOVIZg3+w0eix+KrjNWUStiakMwb55aZSQU2TmoQ0ZcmUeTWcg2DdVDa8yIS990M3YLRgrfQjBvglrSCFARtLsPyVxBPvmqdHDsOyOb9z2n8n/FaSZNcAd99SrOx+++OB02SP5KA6CfTNW61Gs7AkgA2kue6gm/jI2wb5Zi6UehTNVfOPuZmXyDU6iWQN837dR3bmnCq/956ukL/P1aWYNCIxUdws7vjAtzf7zXcKLkAT7ujAHzlRh1SXdicybNKsVwb5eTEGPwaNM8FikPqV6TzvN42eCfQ8x6nFIh8Bh0t2RSXnkTrCvK4MepuBnhmNMpSbvItsR7AsjLRDH33B4kJroyD3NrAGCfY1eVWUdEm62PRLfco9pZg0wuj1YyTokzLDRtj/yu+8vWI1h++Fi4fICNiyy0bZvXifweNeLYN9XdhciU8/FgzFG2vZNL+yZf1eTYN+UDdxkggEWlmQ+yQYE+8Lgygw3mbCbXu2oZDWCfXGoSo9A647dxNSvpF7pZB2P13gJ9r1m9lCV1h0ukmR+GORvPheLCPY93ZTzbznMs3OS+m6SNQj2xRujh6oJP1kAK2ZDJ6nvZAWPWQMM25eYvKlK6w5fI5lV00iP78oS7LvE6tMdtO7wNZL5+34qwb74yebYndYdrkYyL3q5j2Bf/GBzj5jWHY8bzY1k9LkbwGOlqSHYNwG17i/hxySRvvQf5bgpyiKCffEMMWR5ugSrYq02ySKPWQMMZlNw0f1xTRUOsmSuVLLAY9YAw/bVLC4m0LrDzbhdl5dlCPbFPTZjCGjdkXVO2A+d3ECwL55rzKeTgWmN2nWR3zxmDRDsu4XVwQzfzbBJtDpuX/im6vFwgmDfjYwOZmjdYb9arRblB4f7ogT7bmdzMBP4EMd6k9mj1Hfyk7uge4J909TqAUj6xGqD2lbKv3x+ySHYN1Ux6M7IIICPNZl3lXzy+SWHYN90XXRvxIfBxZrMu0beOK3tBPsmrTLezcCuNPe1U51BJlbbCfZN3xx0f3yeI/cVyA+9vDO62vYogn1N6Gx/V4VVWdR2HeUkpSaEYF8jCt0fn+kwuPmRcHFvNR0E+5oxWv6yCqOsr7d/mkWs/pE+iGBfSyq2IfENtX0DeeVs4M6w3Y5Zd0Y2JJzUdpV3Bg/GHkKwrzWt7osjVTip7UGstl+PyCzYdxzH/L+DxKD74kgVLmq7VvLGy12vTIJ9x66u9FNRdUPOX0Z63RdHqsg3TuZXcXfTuOcQ7Dv3lf5WtPleyCp0VxypwkVtfyvuXhr3HIJ9h1KXFG0G/74z/uC4pQoPtf2U4h716fII9o1d0Lsa+//GWyqOVPHO08L2/61z8nGYQ7BvF/S+XO/djkb3CGBLRmep34t77sEDGQT7joX+LdMl/kp3RfAvHNR27UTyP07NINh3rnSVPK/fjrq3WoD0ans1tKaK+6BPlEewb2x1tSyDcypW3ZF9bQ/tLNKZKu61Pk0mwb590Cv+Ru8jq+7IvLZXg4hYK+6F7shhlRtLpwfIh7bupQAphF99Ne32invUXXmbT8y132nUoa27/U995PI2RzFEEYvFfdSdeTpZjJ3vc+QvFXMZ5Fnbq8tBGYujiL1oEDc7gUPhfgP008hcBjkeCzajiNni3ukSgn3vGyuC0r5UzGWQXTxKM4sYLu61LiLY9465IXXhu4G5DHJqPz9Ku+niXuktBPv+oQvkpV0rmMvAQtewpbRT3P0F+14KTh9+GpjLwMBhzobSTnH316hOFXtDv8XAXAaZXF5qZhGKu78Rc2w4hLipMxh3jbTFQp+gmkUo7g7vZfaB9aHbZvJlkMGCezWKUNwdrnWPBSk7ixpyf5H0b9QKxSBCcXd4IXOu9EiF8Wo2kvuLlAd96zosirvDKJXY8QF4X8F7TNjPRc9WzyIUd3cjB5EhqCqjqzO3Ie03BDC0KFOMIhR3gn05dD5jG7IVuBULPVXoRCjuBPsywTrnAKwQuFXpqapZKO4OL+jELugPXPS6aeKSKvbR6pnCIEJxd3i1/nawLxENtxQsQ8LeYWodheLu72bOcrAv4Wo39CxDwtphariIUNz93amPjS4jqeGXyDIkjN1MraNQ3H30nluCfXnQ5OjnAWzv/SP9m6nhIkJxdzI13hjsy4nFjVV3S28IYwuTv0T3VFEo7l72PbYG+7Jr9EMgGRJmBu69CMXdwbj4Wmx1JW4JHPmNWuDNeQP3chKK+w2Z3rH81Ac9VT73ey/6wtIfADYx1x4sa6JQ3H/LNh3lVrDv/9g7F+zEdSAK9hZatjHGP+1/le/Mm08CwWCBLPq2bq1gMiGFLbVKZXBT5gmaChfdSfkF9zCKUO4/cNw1/GoNlMdJkaDXZLjoTv6yBi1Cuwjl7lZCR4d9a/3SnDQfXHSvjlaL0Eeh3H/gZvlgM+xrFJjlrqCqSH8BJAkX93NcRCj3W/xs/G2Ffe2Cciqs15yA/NAkC7OWICxCuf/A0cjeHdZebYMxYjppKszLkIIN9zYK5X6Lq8M2P4iD2RUZsMNhmgyb7uRf59f2+mZ9cvew2N4oBABZh5OmwqY7KbUoM4hQ7td4C1z9bA2gYP8ladRUeJEqEYkB4K+nLrkz7JuK9//xVVPhRarkzxuf3a3U+uSOMsJhN+zr8F2p1VR4jIlMejjtKpS7pxVgsNaAhyMFZ80GjzHVQoFFmTYK5f4N/NmNx6w4i+3XNIaX3mdNhRd2VE+vR9NHody/cDB1jRH23QD1ZIGmwluya2c+3u0ilPs3GPY1jdkiwUnT4I5q7cRGD+YslDu6V5y0BrC/YS+aBndUa+esBzMK5b6PFn8ddD2pB2x2OBfNSBDinQXF7f7lHuA3Uo2GfbeAiwEHTYNnVOumRXG7f7nDx5zshn03QJtHPWkaPKNaNRcYt/uXu9GV3r3MqOOPOCfJLrpFfR838owYYNxOuZvGfNjXw1jqrFvU+KJIHnPCcTvlbhm81sA/kIoEmpFWiGdmILdT7naZEFsDX+B0lzvNBQME3mn0SEaz9wBS7pWGfTeAiQEPmgQDBPVyQXI75W4TsLDvBiAx4EkV6a+AbIK9mzoafmqh3NkauAXilvJVt6jl80b20UO5nXJ/EYZ99wERAw6aj16IVxa9xfYHh3J/AYZ9EwAoEpw0CdZlKqXDcjvlng7DvomYLxIMmgTrMnUygbmdck+FrYEXMB7tnDQXnIV0TKOH0UbKXe/hR+4Owr4b2I4Br6pIfwbkLkjvdz/cbv1fTLkz7LuN6SJBoNzJ58Ygw2L+64hyZ9j3EYavuO10A8cfOGJmDHKx/65Bub/B2GgZTtNsM1nzLAaMcrcOyAeOpLHqYYwAC0mUu/2wbzPbPf/6JAaMcqqcs5AuOekVEE8DlPsufLQGwsV2ueZxkQCk9Ue5e2TWo+ghtoApd+Nh33M035z8UAw4ai44C+mTTg+ijZS7W7kXk2y3QNTit4oEOEl3Ie6Y9SDCijG8SbkbDvs2E8o9T80oP4B6MGP01x+tXgEiTcr9IU5aA2FAuqG1m+UHQNtlHHR3x6gHcUE5dkW5Ww379jFhBLMQiTFgoNOHkxBnNHoMJ5hPNeVuM+zbzXiHp25fNZAezcx+4oixB/cmUu4e5V4s7NuMmNmDm00CoA0zo584Yu3BPSw476OUu73WQBgibLDserwH5/whr+twxgi54E65b+Mi7HtaoVPD3wfzcWYheYrJGQ3kgjvlvoWLsG87o18S8r1IANOFpNx9MWIuuFPuxSg/XB5Go7sACXzFgIEG3Rshnmj0C6zjEJR7UeIQtAxDtDu/k0S3gsmdR1RdMeohDEK5+5L7WGz8cbU9eZ/EEEUEKPorxBGdHkEnlLsruS/lwr7mA5VJhBHp74By98SsRxBWyt2T3AuGfSG+gZJoZxGYojv7A47o9AguQrk7knvBsC9KpzKJfoV5QKPc/bDoEXQiQrl7kXvBsC/Srm8KYYiUO7kF8ebUsIoI5e5D7mu5sC/YvGYSzUi5kxtwTi7fXJpKuXuQe8GwL+Ctrkl0C8IR1YsQJ5yBF2Uo9/9xH/Y13UhIoo/25c5ymBdiAF6UodxFnLQGuhm2bpZEGCh38hegGarbFzvKHVzuf2u6oMvRNcWAKXfygwZ5UYZydxH21SGiv3gk0a2m55kpdydMegCL/IZyR5Z7wbCvhy2DJM6RcieIB5jO8hvKHVju38ZNsA9vVhIDptxJgTnIr9Av5Y4qd7NhX9Nj+km0s1W5M+jug7PmZ5I/UO6gco84rQHkGPBppdwJ1BxkJ19Q7ohyn4yHfU2ncZIYIuVOgELui3xBuePJHSDsazpq+aFVqRPlTq5osXdTKXdcB97sKHr61vrI4a2BcicH9yBDlG9Q7mByR20N7GN0HAOm3MkVPfLZVModd99xK6DlZ6c4hTBQ7iQ3QXPTyHcodyS5w4V9Tc94JtFMlDuxvp06yXcodxy5Q4Z9HRUJFsqd2ByNvf+xoNxh5P67NQCzwozxsybRR8qdGD6deuNHyh1E7sBhX9tFtBTChXInZmO/nVxDuUPIHTzsa/pHTqKZKXdiNPa7yBWUO4LcHYR9TU8GFTqze6bcyYFD7r3cQLnbl/vX7DdSSQVqpj+Jc2R+gNhrhq1yDeVuXu5uwr6mB4SSCCPlTt4keHhwp9whhr6D0Qv1HcWAO9iCCAG4gmmVWyh303L3FvY1XcBM4rTysg7yOr2LB3fK3b7WulUsY7RIECl38irBxYM75W49kdjMYhybMeBmpNzJa0w+Htwpd9tbiQFCFLODGHCg3MkfevzDqZS7+SHA3u5iO0QMOMpulHInfwj4h1Mpd+PHd7pFYICPAQNnu4nxVZm7ZqTcM8gddfqvmQQKo0WCSfbh4G+Z2FyVaeQOlHsOuWO2BsKAsiJjPga8yg4Wyp0ctCozyj0o9wxyh4zd9rbHH7FiwHuOCcyUOzlmVSbIXSj3DHIHfDLtYPUAGwOm3Mn3VRkX++uUu7k15TAKMDaLBM1c8FY1vAU1clv7dfFxoNxfmAapJ+xrepooZ5Fg0HwIAWbRRGweYKLcPzLHjdkIw48BD5FyJ/mNaHeRjnL/QGsAPTjgMAZ80gSsbqCRDLSalVbuQ7nnkDtgO8V4KmwPC1iRgDl38j9RE7E6B0m5W60ewi+8W40Bb82YNpQ7+cWoWQlRNqDcM8gdU1HYIzN4MWDNx0kILr0mYnY7lXK3O9fX4i+9rzZjwNO7L+NW55qJueOpi2xBuWeQO+624Al/6d1oDHiRG2bKnbw0CGk0K0O5Wx/oQwzMYMaAJ80HWPCNvOND04FQyt30UZwGf+ndaJFgkO8MPgabSWnFmD2dSrkD9GuRou7m/zM3jxP0XpZZyXuoqp+9dcrd/MMmzHVMwDHgTjPBA6rQTJqG4SF3yh0iXItxkSrW/+lNDDhoJih3aM6ahuEhd8odZMAD7VYmuCKBpsAzTG5pNQ3DQ+6UO8hotosigc0YcDuLyEy5kxeOOxifm6Lc7V/z/Juzg6V3q2ORo+bjLASVSdMwXpCj3M3nUBgDPphwGTQBnmFyy+BqVYZytx4y9BYDNrrs5eddnLxO5+uTQLlDWcdBkcD+d6j1PwMCMeUe5BGUew65AxcMGQMGRAgqs+akl4dQ7hnkjrvTdwcfMWDL+9ZvwXuYoLloTkZ5COWeQe6oM3rbdPhv/lYnTt+Ek5DQnDQnUR5BueeQO+bpmsf0+EvvNmPAHl7Gyas0zr7lq5e7zZv6H+IlBgz5P/8QTkIis2pOLvIYyj2D3AGLVk9xUiQY1B/4v5ZqmTQnqzyGcs8gd7gW7S4YAzYK/i+lWgbNSCOPgPuB0OSO/+DIGLAxOAmJTKcZ6eUxlHsOuWPd/5aAkxgw5qbHFq0QVIJmZJLHUO455O57WMNDkQBwXGmTkxBQVs1JlCdQ7hnk7n3MmjFgM3BYBpnJ3RtclXJ3dkCSMeD38PY2Tl5icPclX6Hci6VNupMWwEeRwMsXLv5rVLV0qkgypNxVh09FCZu54CxI62Dp3cVSmRBUGnefg8rkXswgYSh5DJMxYAuwLINM9Pc5qEvuxcbu+lh4FsRHDBh+PJV37MEy+/sc1CT3udhi+/KRWZAGf+kdPQaM/xuolotmZJKnUO4Z5F7esdNnZkEYA/4wjA8gc9aMRHkG5Z5D7oVbA2GIH5sFcRIDBi4SCEGl03w08hTKPZvcx3Jy/eQsiJMiAWwMmPupuIScFpCnUO5Z5G5gIrHcLAhjwB+D+6nQaEYu8hTKPYvcVwNniQqenmIM+ENwPxWZWRVJhZT7L87FlruHaGQWxEkMGHAsEn/Do1omzYjsgHK/xvIhl9NqahYkXAQeuBhwEILKoPlo5RlwP1PNcm9mWxdDMwZcHPZ+oek1CYT9VMo9B+FibxaEMeDCsPcLTadJIOynUu4ZOEersyAOigQT0NI7/rtSvQSHnwPK/V26xfAsCGPAxeARJmg0I1GeQ7nbl3szGT+GyRhwGXiECZpZ8xFkD5S7cbmHAWAWxEEMGOPGWy654zJ7/JKn3N+gjxCzIMHB0jtCDBj/HaleLpqPs+yBcrcs926GmQVhDPhwuOQOzaD5uMhT4H6ouuTejFDHMD3EgI0XCbjkDsxJkURIuR9JGCLaLIiHIoHpGDCX3IHJqZZVdkC5W5X7aQWcBWEM+A4eH9jIZ2/Hlj1Q7jbl3s6gF0MzBnwUDMuAk1MPsgfK3aLcwwh8DJNFgmNgWAYcTQFl74VyT+QcsWdBzg6W3hv9CCAzEuToMXeUvRfKPYluhb8YmjHgF0HZRiOUO+WeTDO7mAVhDPgAGiG4TIrkQcod8JF3ZJEgZRfaDrw+FZyBcq9a7n0UETezIA6KBLZiwPiDSDUzaD6iPAfup3It96+wr5NjmIwBZ4TtAXAGl58Eyv0ptwPiXmZBHMSA114twEFIdDKaJcg+KHcDcr/TGvAyC9LjL71biQE7eA+qmU6z0ck+KPenvwKXCmQMGC4GjP81WTWUe5Vy38opOjmGySJBFlohyDSajV72Qbl/VO5Pth2dzIJ0i6Dz4Rgwj6fCo/kYZB+U+yfl/nRg0MssCGPAXJWpHMq9NrnvOOrj42JoxoC5KlM3Pl/iKHfLk4JljmGySODoD5q8giJpkHJ/h6TWgJNZEMaAKfdqWSj3iuSeEMZ1czE0Y8CWP/sEJApJuduWe/pTrItjmIwBv0zAHzmqGcq9Frmnj367mQVxUCSIvX6CgL+qVTE55S47odyPkDvi5AhjwNZjwC3+ola9UO5ag9ytznwzBmw9BtwJQYVyV/9yt3xakzHgT+9C45w7J5Q75X5FY9xqc7GxSPyl90N2oTkQ6ZRJM0G525Q7QiGRMWDTMWDjDwekrrs6KHcsnWU8hom4r2x0F5oDkeBQ7upY7jgzgAtjwHaLBI39lz9Cud/DrdyxthAZA7Zbi2RBDBLKXb3KHWCxnTFg89sUHJnBJcWCQF/vlDtiMSuySGA1Jwb1EkhesCDOcYfa5Y7aup0ZAza6sYq/llUfGS0YZA9wPxag3JEfTBkD3k08aTkC/lJWdXDNXd3JHTtyyxjwfqag+QB6MSeU+z6cyR1/GIRFApMr72chWFDu6kruDsa4GQNO4aLFcPHRqgnKXR3J3cMBTMaA01hazQbj7q4YNROUewm5e2gNFI8B48d3ih1YxRl2JqxC7sCL3B1ED49aT8bOZpbcV+WyuyMod/Uhd3hDMQb8OmurmeCyuyMod3Uhd/S1hQ0uLBLs46yZ4LK7H3LKfZWdUO7Jcne+K8gYMMgONJfdgZgVSYOUu895PsaAYaZmwL8Dq4JyR5c7/kkcxoCRagSunyR8QbmDyx3/DP0OWCQo+annzR1e0ARwttJrkTt+/YoxYLSFd7bdYfC5HFeH3B10axkDzsoSdAOfD3GEcncpd/T5DrMxYOTZo9hqBlj/9QHlDip39Mlsw0UC5FMDJbZVT0IgCJoATPHZvdxb6MEO80UC5BGkXg8HemOiIjrKHVHulS3JvPB7rffwwEVVeVCViHQuT69R7j7JK3evjc1R7+PyOY4UkbvKLsAkQLnvAu73+guvMeA56MEAL1tVxFkzQblT7ki/1984TW1mGInkxAw+g+ZjkefA/VSU+y7gfq9/8VkkyGB3TszAMyiSByl3yj07LkdOl0bfhEeZ4Bk1AZiFOMrdJ8fI3eVhsdjqm7Axg86sG0Abh3L3yVFy9xgDft/uvHMPnDS5oySFKHefHCd3h4G2u3Z3ucVG7hM1BZTpV8rdJ/+xdy7oyfJAGM0WJogIiGT/q/yfr/17VwuC6VzOWUHt4DFMJm+eKXd/YcCb7W7mXAtcR/YjpyUYkwByX4S5uv7EXxjwZruTQmCbLPuRlmBMAsh9Eebqeg13iQRb7c6wu21asSRC5I7cn4m3MOCSZRNWNtlgu1qszL4id59UkLuzMOArp5k8ruZg3ffFsnKQu09qyN1ZGPBGu7Onaple1mDkTDJy90kvf09rbLm6ze7sqVrm7PGHHLn7pJbcXYUBn9lTjcokO5KWYEsCyH0R5ur6C57CgEfZAudU7VJkFTYOrSF3n1SUu6dEgkGeh623mGjIKmyMyyB3n1SVu6Mw4E42YOVYOqxwi2HnIHefVJa7nzDgo3zD0hcEHqZ1+DOO3H1SXe5eEgk2HVU1MkUBm78wJtJlkLtPetFFY2bZWrI8jpVrHOA7o8PtFeTuk17q4yQM+Hnj7k0CrUwOd1SRu0/+Ru4+woBHeRxOMhmliL8dVeTuk7+Su4tEgpM8DCeZrOJwMAq5++TP5O4iDLiVTzhc0sFPWn87qsjdJ0rlbiQMuDQs3aPR+Tujitx9olbuNsKAL5mlezB6f3NRyN0niuUujYHW+8jSPRiTrMLC5SzI3Se9rKcds+yF+TDgjqV7LGZ/Q6/I3ScPyT2Vk7wRPZGgHFi6xyK7O8aE3H3ymNxTmlupQ9ZemDmzdA9F667pjtx98qjcU5oaeSd0GPDI0j0UJ3dNd+Tuk8fk/sqQ5Y3QYcAdS/dIjO6a7sjdJ1vknsqH1iInEpSGpXsgLu6uZkHuPtkk95QurbwROAz4wtI9Eu5ihJC7TzbI/ZVzI++EDQPuWboHopUdOaa7WHt8kfsi9Na1TV/os7wRNgy4JRwyDidxFi+D3H2yg9zT3MkbURMJ5kyuexhGb5cqInefbJH7B1MrbwQNAx64kikMF9mTU7qPUgkgd/1sk/sHY5Y3YoYBtyzdw+Dtxlzk7pO95J5KL+9EDAN+b8x4e2eHH7TOhiGRu082y/2D+Sh1yA+13k02ZtoE69D6pdG8bY7cfdLvaZzpIO/ECwNu5RVnyzr4wdnZDzhy98lecieR4GOfzV32CHylyK6UdA+lEkDu+tlZ7qHDgHsOMgXh4GsmypTcOev9V3KPHQbccJApBp24OqSK3H2ys9xjhwFPTEPGYPTVl0HuPtlL7iQS/OMo+6M8zT4ks6+zasjdJzvLPXgY8JzlH75e2uEnjasSI3ef7Cz36GHAPdOQIehclRi5+2ST3O8zRgwDboh1j8DoatccufvkiXJP5VPrPUoiwVle8BYKC1+ZxVO+TG8pBg25/5XcCQNu2VKNQOOpLzNZOpeB3KvLfVEiQYQw4AtbqhE4iaPc38lSjxS5K5B79TDgdkqLsLXXxpbqI1hrvzXpN+xkGLczcl+CB7lXDAPu5rQAe+OQQZ9NzRRXrbfG0HgyXyAFcr8RBuw/kaDnlGoAWk+tt6OhHilyry53NYkEl/TXlMydHf4ZPLXeBkMXpiF3BXJfFgbscSy8J/jXPxdPj+3F0HiyuX/udbSK6I7cNYQBtyX9iqkWJqPu6zBZ5CZdx+SHeaUvyP0WzuReL5HgMKf7GDu/KCJjgpVYm4o6pzsYm+z8n2ZE7jdxJveUzo3UIF/SfcwthBh1X42xYci7JTbZl/lHOyH3W3iTe0p9jmD3UUR8RX7DD1ydZjiYGU9G7mrlfi0M2OHtdA19GfccxdEp1dHMeDJy1yv3lKZWns/htt1NflcOCRZjs8Z/uyDJVi5MQ+6a5X4tDNhdIEvj6qUdrlBcXZfbyxNpL8j9C3prukDua8OA3d0sPfj6OHCF1tVB5EaeSVeQ+1fcyr1KIsEl3cPaMVX6Muuw+AM+ptuYm/75Rh6Q+1f8yr1CGHCbbqD2H0tfxhSzr42VVkxcmIbcDcj9Rxiwr5M/vjqycI2DqwyhOcuTaWfk/o5zuafSO56H7Fy9iMAVBl8vm2cREfUXpiF3G3JPaW7dZojNnGPyzuws/vMkIqL9wjRzIrhOALmnNDVel+5HT10muMbB19I9VTmBMiH3f0SQe0pD9jkOOfma3IefDM6W7uUgFTjOyD2lGHL/SCRwdoVRI/uSYC3Wds3vfbf82D33BbmnGHLfGgasddZ9lAfQGgoLO7be1C7dK9ldmhG5R5H7tjBgrVcYlezow8A1Rm9L91RaqUI7Ifcoct8SBqy2L9N5+jAQ5L7ck9ShK8g9itzT3Hnry1w8fRi4Rudu6Z7SOUsVco/co8j98TBgrfMy6eDpw8AVJvG3dE9zK3Vozsg9itwfDQNWOz84elvUwU4jUWoTZt63wOrQXpB7FLmn0nvqU5cs6+GQqiV6eQzlp9VKn6UOp4Lcg8h99zDgdB9bLVmGIR/AWgSBNCt1Z2gL7Bp5QO5R5L4+kUBxB3OS9Wi9ZhMeGXU37KKpWut9Qu5R5J5K9iL3B1qy2tuxsNO+itZMpHqh3B+0M3IPIveVo7aaJ0xOsh5u7DBFlkewcVyt9FKJviD3GHLv3bzizrIW9XttcOP3200z8dsWWB3yiNyRu626Hnwu6WDz77eVodfpIHU4TMgduVuq6yBr0TvZCXe2VB2/og1Z6tDNyB2526nrTNPdO2dxvKf6QjlJHXJfkDtyN1PXg98VHXweiXI99VovkWBE7sjdSl0Hz995eC2x6z3V6okEyB2526jrzKS7d0qWF5xXuq/Wei/IHbmbqOtBVkK8jDU6EbfnVD9RqiUS9MgduVuo60C8jHdmeQJ5Tluxcx/md5ozckfu+ut6cb6eg5RacT7s/s5YrfU+I3fkrr6ujftvfHgm+cBNdIbOMGCjEvgJcvcg95PsSE6wGmM/4JobM3XDgJE7ctdd17OshItUzTFKmMZMzUSCZkLuyF11XTnG5J8mTmOmahjwcUbuyF1xXY8cY3JPL88gq31PqxkGjNyRu9q6DhFe1YNTskiIo0x/EQaM3JG71rrOsicJ1qL1m/SK+uf3FlO1scgJuSN3pXVtZB3sqNpjw9LdVMbMX4UBI3fk/mBdDR1PZ0dVJ708hUZ14ETNMGDkjtwfqquhQTl2VHXyrKX7MammYiIBckfua+tqrOnOjqpSOnkYm/OQ9cOAkTtyf6CudprunFFVyiyfCLXLUjEMGLkj93V1tbWoU92EjUwnEdvulcOA7UrgK8jdi9zHMPMTkSlZQrbd/zG1ohfkjtyNvLEHfVQN0Ee209iIViz8+5C72bpm2Y8ugU42Ld3N39FS+iw6Qe7I3Ui8DOMyaullAzZDZrYlEiB35G6+rj3jMhF43tL9oH5T9aEwYOSO3M3XdWJcJgS9SNxN1QfCgJE7cjdf18K4TAwa+UzEk8mrwoCRO3K3X9eGdJkQjPKFkKFCcyuLQe7I3XxdjzyrMTiIhD2p+kAYMHJH7ubr2gdsv4ZkEok9MrMqDBi5I3f7dZ2YhQxCKyJhcwjWJhIgd+Ruv65F9oLLmHQzyyY8DES+hwFXw4YEvoDc/dQ1y04gd+WcZBOOOnLVwoCtSOATyN1RXVtZA7OQdilZNuEpe6LPchfkjtwd1PWE3KMwCHZ/Y+7kHsgduTuo68DDGoaDbML2xUzrwoCRO3K3X9eJhzUMW2vt5DDTkjBg5I7c7de1yCqYhbRMh90XJhIgd+TuoK7IPQ5zxu7LwoCRO3J3UNdW1kDor2kGwe6LwoCRO3J3UNej7ASD7gbYqjJ/dn9mGLAZCXwCuTuqay9rINHdNpNg9++Uk/wAuSN3B3UdZAUMulvnhN2XhAEjd+TuoK4Tco9Eydh9QRgwckfuDup6Cf/FjsVZsPvviQTIHbl7qCtPayyO2P33MGDkjtw91JWnNRYly2Zc5cxcCQNG7sjdRV1bWYOLy5JjMwh2/yUMGLkjdxd1XSV3jqg6oH2+3a0OxZbX1jtyR+4u6toh92DMWbbj6G6mn2HAyB25u6hrj9yjMcjTORi6NfuvwoAPIUeHpwNy/x9Tcm8SmKCCvrJdu9dLJDjOKRhzp3TZ6FPuo+wE4TJmKBXslY2ORNYNA+7N9q92Pk2A3LUfUU1gg7PsgZ2HXG8YcGP4N3DPYSTkjtzByFEm00MzVcOA2yCt9/vHCJC79vyBBEYojVTgYLqnPGSpQ2f637RP9iZy135ENcgaxAOT1CCbfiKqhQFnyx2spT+UyP07yB3UP833GJJlqoUBN+fkmKkRQe4/Qe5g8lYmF433iokEreHZ0d9/IZH7NZA7mD2oav0808f4Hj+DW8ZKkftf0SD3mJxlL/xOvFcNA862e1hXGbMg9zvYOa6I3E1xkhdYk6oJA26cfYOmgwhyvwlyh2dRDvICrZlfGau13h2NRc5HEeR+B1NyN/7+HY5LlneYmqkVBhwkkaD0WZD7PWzJ3f24rjfO8gpL0jWZV+xRLHzXQe53Qe7gou0uks2Pcu+YSOA9DHhqRZD7byB3cDDt/sLRfMOBMODF80XI/XeQO1hP/3W0eK8WBpwNt977LMh9AcgdkpnguAiL9x0TCXyGAZ8bEeS+BOQOKZm5rSXEbuG0n738hQFfWhHkvhDkDnauSA8xNpPSQCLB7RxN5J6WgtzB06aqj4BbwoBv/eghd+QOK3C1qerklP2FMOBr7SrkjtxhJW5OqroY9SMM+HrWAHJH7rAWX5uq1kf9qocBn9T/r0ovgtxdy93MGyT8/mzTbyAMeCljFuTuXO72W6lhuaYp+g2/MhEG/BrLgNyRO2jlIFdh1I8w4N8D1ZC7UrlzExPcDncP3m8gDHjBp0fuauXOHapw507VyP2G1YMi4Y73jo0IckfuoJzrA5Fx+w2EAS8a9kfuyB3Uc5ZbhB/1Iwz49qwQcg8hd/vTD7EZ5Abx+g2aEwlKWoCfKX/kriLyNYFpnuonS/0GwoBrn89F7s9gkp1A7uZp5KlY6TcYCAO+pJu4+h1D7sgd9mCWJ2Oj30AY8B90oJC79liRBJYZ5Ono7zdY2WXMNxzi6AcMuSv6VE0CyxykArr7DZbmA2+E83hpPSH37fSWSgB+uzJ+EgnOfhMJrp3XQu5q5d5ZKgF47spYvHwoVBhwuapA5K5W7q2lEsATOcoivPYbzKVpXQ3ncXFQC7lzVwdoPc1mr99AGPCjHwi569WguPxUYCd8wG0iQSN1OM6OXkWQO3IHxZsv1voN5lvUfUkOgn2Ru+L0Afut0sg0Uh3/iQQ+woDvjv8gd7Vyn2QFhEL65SJr8dFv+AdhwBsG95G7WrkPyB0efhDM9xtecHKgs5tNH7lF7po/FOkDljnKH0EY8F7kvtid2Efuur/TCewiWmntvxCaDQOulzWA3HWPuRMtY5hJ9NI5aL1bDANe+JuE3LXK3VQFwMLD/QgkEuxGV4x1k5C7gbCoYwKzHEQ1DhIJjIUBL94HRu5a5T6Jww8FqymiHcKAl9NMZiY4kbuNATj7Rwrjchb9EAa8nHY2cfYKuVu5Etn+VENcTmIAF4kE+sOAy0rRIXelcm+RO7w8ByZo7D9j6sOA1wb7Inetcs+yE4y5m0asQBjwcg6T4j/uG8hd9bBMTmAVzVPuDhMJqi2Oj7PS1wrkbutLzZi7XVRPuXtMJKgYBmwn2Be5a/1I0iWwipGWO2HA68mjmWBf5K42WYYxd7toXbG5DgOuNhY5GQn2Re5qL2iwf4YwLBcxR3bQelcUBlzqzfD0yP1/DJ1LtP+qHJZRDNI4aL1rCQMeKgbfIPdXLO2nMglpFxNHmFwmEtQLAz4riaxE7q9Y+kRMQhpGeWoYiQT7mFXB7wty/8DQkASTkHYRsxAGvIKu/GlnKCXk/gU7QxKnBEaxdISJMOBdfwrHinu6yP0zpoYk7Ic6hUXn3dif8Z5IsGQO8T/2zgW7USSGotqCwBhjh8D+Vzmne9L5OP6AUyZ6qntXMJOGZ6GSbhWhHX9F7NuNZoT7O3IvNcMysgTdOV/OQb/1ftpUBrz9HhXh/g2dFSbXf7+qJfL6yjvIgEtxmDc3IBDu3xFaYeJ2bF08ARmMBBvKgLf7UthPZoT7d4SUkAzL6CK4n5rVSLDzbdhtaR0m3C8gtZeYYCStVhSu2HsDGbAUzdGMcL+OSstdfyCtWqR8v8iAdTjMRrhfR2bK3fW/iatF/zz1gy5B6z3Jv0c3mRHu11BqtSIf0CWuxvsRev0yY0zwL9KOZoT7FcS+xjlP1cVzkcFIcBRvvTeDGeF+Ha2v8QQvVK1IywfSGglERZ3vEhvC/R4yLnfOU3VJMyyTSwYc+maku398wv0WWoOQnKfqkmg8Axnw79OezAj3JagIRdhP1WXvKUlgJLBBrvXeDLMR7stQGYTcG6gi+/l/j1Z/LHIWc7r1kxnhbncQO0ZLUCVVi+clgQx4FPrt3Y1mhPvScJe5NlO/RqqW2TOTwUgg0npvTmaE++Jw19lcMVAl3yRkPiOBQut9mI1wXxbuUuuprDAJk3ESMp0MOPyh934yI9yXhbtYV4YVJl0GL8ch5uI8MuAn045mhPvSNBTryrDCpMvBy3EMOr3XZGi9h+3NNEczwn15uGt1ZbhiT5jOyzGGbSG0CVrvQY0Eh9kI9xXhLlWuue8MZNl5OebALYQERoKIMuBuMiPcV4S7WlfmYCCLFyR2CyGBkSDamUb7Yka4rw13qQkJWu7CeDm64C0EZMDl/56E+wPhruOVYcpdmdHLsQ/eQsghA+49CP1shHu4cJ8bXw1T7jkZvRxD6BZCGiNBDBlwN5oR7o+Eu5Ltlyl3ZU5ejlPgFsIHB/3W++/LgNuTGeH+aB6qTL+5u/4YQsUMXo4xbgsBGXBJmmE2wj1kuE++Hu7GTsrg5ZiithAyGgl6/zX2kxnhHjPcD74eXO5J2Xs5grYQshoJOv8VdqMZ4R413Fsviv7uX810XoxGSmqYwUjQ+uY0JzPCPWy4n3w9XJ+alc6L0dkVppitd/2qZB78A5WfRMJd43XGPSBP48Xo1O4T6hK03ve+Id1kRrgHDvfJ/5DifwVCLagOelLDXv+zc7t1gnY0I9xDJ2LvK2EQMjNejiFKC+GczEaCzaZNm6MZ4R473OfGi9IaCDN7OY6S9wlpGwk2O6zuZyPco4f70cvSGwgzejlGOamhugz4pRX8ExHuKnOQGCG1KRruYlJDdRnwm5tN7eOGcFeZg2Q9VZui4a57n5CgkeDtD6l3LEG4i8xB0pURZ/RyCN8n5N6KjUUeN2u2T0a4fyVouI++FroyqRm8HEJSQ3UZ8LhZs300I9zPiRnue18LXZnUDF4OGamhupFgs7Gj9mRGuH8jZrhPvhq6MqkZvBya9wnJGQm2WxgYZiPcLxAz3HtfC12Z3AxejE5DaqguA95s1Xc/mRHuMuE++WroyuSmZLgrSA3/oCwDHnfurv0rR7hrFO50ZdTZKNyVZMBN3Nb7JOcaINz/Ili405WRZ+/F6CIfDa6ijdl63+638DAb4a4V7j1dGXiizj12n+EMPSPBdq6ByYxw1wr3yenKwBPDPfoJ4RlaRoLXzVwDoxnhrhbuva8G2292Oi9GH3+27ytCMuC5z/N/TbgrFO7YfvXpvBiDgALrDBUZsKDYl3D/QOrojDuY0lAy3CX26c9QMBKMimJfwv0MKasMN2NnoGS4i5iwis+NIPYl3G+8CFpv8RudgTwlw12lr3xGaBnwh9g3zXQ/4S5QuMccBgbVcDd7xUiQRuxLuH9G6wImhtxzUDLclWa5JYwEBXcAlop9CXe9cD86Q+4QP9yRAV/c3k3lwiTcyzI3zpA7KIS7TTFb7xcCELEv4R4g3A9enJ1BArZZYsogA/5Z6yKsMfO85US4i4X75BynQlT9gI6RYLI7yP28fXMNEO5q4d55cZqwWlTQD/e6jQQpxL6E+za8eHkOBhkIGu5hZcAvZmZJXAOXFrQId61wn1tnOxUus48a7rXKgLOIfQl3M5M8TWU7NQtD5GeiPiPBazbXAOH+VF7dnSuYQDDcH1q+F25VZxL7Eu5bsHNH9gtXGIKvLAeVAY/aroHZLhP2kSPct9pNdT8a5GDwcog3oVfRTYh9CfdfDvep8UdgDrIS4od7HUaCgl8o0S//JtwDj7gzB5kIhXCPKgM+6Z0t3BP7Rn3kCPdyTRnmIGth9HK8JpgiWcVuFFvIXeAaINxVwv3Rpgw+yFoYvRxjCtnKKvpJaJ5/0W8R4a4S7p2/o1GhwScI98/Mj7Te4/c5sop9CXfJpgwLTIkYvRynLM6VVbQniV+s5T9ChLtCuH9uysgUaLApsys91NmMBKf0rgHCXWh9icI9GVLhHlYGPCP2Jdz/MQT9I/4BkXtNqP3sp5EBz7nFvoS7SjcV80BaGrFwz2IkyC72JdzFrk2lcM9HJ/i7P8obCV5qcQ0Q7sFF3RTuiem8HHYRacfWKg4zYl/C3QeTnIKkcE/H3ssx2RWQAT/nPz2w2Jdw15K4U7gnZPByjPYNjAS/J/YNagkh3H/G3FK4wyIG3acjpgx4P8UQ+4ZdRyHcf0ZH4Q7LOLnMU60vAy7oGogu9iXc4/+HUrgnZ/Ry9PYdjATPGNGXcQ0Q7oV58SexM8jGqxeg0CsYes1zFd1Yu9iXcH8Kr41/RvXADD4jsaLa2DWQAdcm9iXcn8G888+IF2YgFO4+2zUqNxIUbB+JiH0Jd6XDVAr3nHQJnpCiB5XlV4jmel0DhHtJen8We4OEdCkO3CPLgKsU+xLusSfbuDm1Bg7Ks5DxZcDjqU6xL+EeerCNm1OrYMhyKhPTSFAOLbEv4a4zKOONQDcPHuBFflwmuAx4E3qd15NwL6P5TfLFDSJbTD7bXSqUAf8cPbEv4a4yBOne6lQGsI5cA1UxjQT1iX0Jd4U7UxEPJKfJ9X03914VTWjXAOEefQiS/aXMdNnGZWPKgCsT+xLuKtnO/lJi+nza0Jgy4KrEvoR70FeUMciaGDKdqL4xV9F6F3ANEO6Br9VjDDI9Lyk/8WLKgOsR+xLuCoupjEEm5zXpoxLTSFCL2Jdw18h27l/KTdqT95hGgjrEvoS7RLZzmpqcXZ4dVQkZcE2uAcI9drZjg0zO3gvyaqupTwZcgdiXcFfI9ka1twe/MS5ztLVgJMgo9iXcBbLdlb8AYQkvyadmj5la72KugQv0hPvabOdSbHiQKfvpex4ZcKM/uDY1hPtP5tsT91Ah+LhMzDtdkhgJhMS+1xh3MYewSoa7wl7qHw4G6ekqUMwlMBJIiX0vM+2jTtiWDHeRbMf0WwOHKoarxI0EbdBfzRXMQ9z1iZLhLiI3ZcS9Bk6edtI9iwxYTux7gVMbeDeuZLgHv5sj7ugDBBcQRD6lGVVb73pi32+MXejF55LhLpHtCMMqoR4T0Umx9S7sGvjH3Ae3WpQM98h3Yb8jP1ILy+jqGZ7VkwFrin2/MjTRlUWRwv2l8T/gHYACHDyh0z2JkSBBs/2lje+jKxnuwVeXaMpUxamu+3aFZMDqroG/OwYKstGS4R58BJJJmaqYajuGF5EBt/rv4HzQMElHCfe58z+wvgSlaOoYhtQyEkiLfd84NiLXBAQJ99fW3Z31JQhq/dU4iJ+ij0Vqi33/MrYyd8CUDPfYR6mxp5Uh8qOt89EXWgacwTXQCV3wFSLcD/4Prk2FUox13ssYVgasL/a1eZC6vbFkuIdut0efVYbYa0w6n30xjQQJxL52arSu5i0Z7nE3l7h9qUa6GvsyQWXA1Yp9qw73o7/DaioEfbaV+jIBZcCd/vjj1LsT7j9oyeALg7BNd52+zANGAsS+9/+chPs6xsY3Yqf/WQhrqXpJYkWpidh3gZqNcF/HwbeikSq7oAyd17bHFE8GvNc/6nrt3An3dbzu/BZ1qUEg9sOteWqzYLwDse+C4SPCfQh6kkrDvVbG6p+ie4PZiH0XiH0Jd/ch7KI0DfdKabwm7+9qGTCugSVTR4S7uw9R1+iYcK+VPc29G/PZiH0XVKCE+1+GmGW7Yq8UynBkx/lGKYXY965kk3B/Y3i0jYVSBhSc7u6qxeiFnELse/8XkXB/Z4j5lcjFehXTVj3qfvVjGdfAErsm4f7B8EgNwWEqyFykqjfqfvFsELHvklNowv0zw6ODt2wvwZN4YV/iWzsUse+C+VHC/SvDY6teHKaCioFA9kj10z4OYt8FBSjhfsYQ0DOd4GAHfsKey7w2LK961RPnc2cD4X7G8MBHIZup8FROPFHnDizEvvdta4T7GcNjzxR3L8HzmN3ZUj231+IauPOnIdzPGVZ/6zAoA89mx9bEJrMgCcS+n+aJCPczhvXRzqAMaC2pal3IdI1xh9j39nEE4f6V4adtLM6+IPySqvY05DunBrHvjWkPwv2MYW20o3AHk+vLpCjdzeYB18D1aQ/C/YxhTbQzBAn/o9aXcf0y9X+mDrHvVdcA4X4n3Me9X4EhSHhDry/TWRbGFrHvmh85NVFRyXBfeoxKtsMHcn2ZNKX7X/UhYl+/hryttmS4r5trZ8Ad/qDXl8lTupvNPa6BK+ibUUqG+5plAAbc4Q25voys1v0ir13FYt+dX0d/mu8J4T72fh2yHb4j1pdJ1vR7aRH7LkFOH1063OfTzhfAlanwD72+TK7S/ZFJwFZ/0HjJLKj4JUJlw/21b/w+LKbCF9T8MtlK97Uzy00C18D9Q0H9We2DF6M/tn4bsh0uo+X9TTUw88bYIfa9heLXX+e5INvhGyfBBZTtObW1uAYWfackGOhLFu5kO1ygoXRfZrytodm+5IQhRVcmWbiT7XCJntJ9abynj/Yls0E5ujK5wp1sh4uMTul+n3vTbvsEFxIvnurPsEKfKdzJdrhC644cciHTsfNvNPuT/oTMw/u4orWB54Fsh2scUUqvYjweup3/T9cNpxyv1hqTjroRMle4k+2woYLAmwSVbFWscGAmUA+kCneyHW6wV7T6gb7Y96rtV7Ki+Q7ZDr/Ni+jAA6RwDVz86BMcI/gG2Q730TtS9b2BBmvFvvKy30zh3pLtcJtBdeQBpMW+98YgpRazL4HjFxYgZg/LPA6ZiBVi32RpNXgCyHa4Ty95UxoU2LldSRYjeYZw78h2uM8o/aKCptj39ukgC6q1ubVB5EImzlSDs1LsmyzbE4T7wQCWcBIefABl18CVbBccELsFS+BwAznxr3tLTzAoa5vt6bJdfUG1IdthMQNfjtXwoNg30+SH+IIqq0uwglnX7weSYt/bdYDgBMF27JhVgDX0TmOmAuaDB6Qd7QzFM6Z/MAIJqxD9UKUxs5JqxL6faAY7Q7ML+T+MQMJDiLkhacysphqx7wf9ZF/Qfdj/wpgMrEW0DUljZjHVuQb+shvtMoy5c5QKsR94GjMLqUrse2+kj0lIjlIhfOlOY2YxFYl93xhmu4jmAdPz6fkOhsfYKd++AEJi3//ZT3YR2Trm2RwN4PH5MBwz+Zh6f4Rs44+fOLogtNvhB7QUHPmYh5Djj0e7ieBSB9PtEJiT9H32oCH2/cNhtptIzg58wPUIsBbV0p0bY65To2uge7XbMCxzRoNhFYKW7izVXaM6sa97ez+oGJb5SscEJEQt3Vmru0x9Yl9vBvt1XlwLWjIQuHTnpP8CVboGZlsAZplPtGyKQOBZdzQEWzPFbLaPtgDOUz+z582B4OsdTLt/pUax78kWInjtWDI/A2Sko3EoT1Cx72wL4TwVlwwole4cqv4D18BNZA+WKIggOB3r08og9r3LwTXY8cKAykcrh6pmhtj3LqpDA5TtEJ3en8XOwOoT+652DbCfStkOT2FquP5RkjHm+ONkK5E9VaJsh+gMPLOCIPbNs8LUUbbDc5hbrvdVA7FvnhWmBkc2SM6KsUv9DF5wDaRpubOSCqLzBAxEIva9SeUtd0wyoPsCkO6IfW9Sdct9oGwH2XFIru7ANXAD6a/SfJNFkJCpId3/Y+9O0FtVdigKM4VdNKYxhvmP8j37u0mcuAnmGCKp1j8E33MVoVLtcsFosK/dIjXLLCYyuHD98Up1J9j3iTwf6kisCeOLyzeZLuoCUYN9jYfUHmSTzc0ihHSUJK6qGmYza8DusP2fmpY8N4sQVEN1t4xg31VOWiWjzExkYEpUd7NsBvs6OBHs9bpcHqhCPjpR3W0yGuzr4dZ8pcX41RBXSXU3aSi1Sl7Bvi5e2DN8HwChjaK6r0Kwr1WDlqK0I7SDiEh6HVkDdjVahtKO4OYkidtMhtgM9nVz/WbWEpR2ZOAoqvuLCPY1bNAClHZkoaG6v4BgX+MamVAO/KvHr5wvu5MA7DxrwNeO9qzn+M2Qk15U96UI9jVu0AI5p6ohL7X+w7uqz+UX7Gs+a2DFv+V8s5CRnylpc1zScxjs6y8QZdLfKp196CC8XpK4zvRYnlkDDj+3ev2l2uEvhuhqba+mpyHYt/Adp/FMapnHYA3vV5nOKo5V/QT7OskaWJj2S9OOfB21g+RuhFsUBPt6ctA9NO3I2kGSOFbd2Wwza8Drf6Y56Q80XlJ3kKm51AX32L/JMdjX73+jQburuIkK80ZdMHj/QtaAM7X2VfWMY+BBp10kPmIJ9o2w5F62jv8MIjO19tEWINjX7bkRlR3+TEn7qLL/mDUa7Ov7v8ucdME0Bni0D8loJsesAfdxV4P20AxUdjjU6gMbGQT7elNqa2Wbd1cCzyrtpcx1ZtmTNeBy3SvRssO1KWk3vg/vCPZ9nd99gLrPtRdBHEd9w8p7BlkD/oJ999yDTE0X4vcBOn2gec8j2Ndr1sAOe5DlgY4dgdT6RPMeP9i39T9s36ZxL7sxyE8D3AmZoXkn2NeJTm+WUduBbJySrjHxfYPJZtZAnJ9+TnqvsgDiGXSNyUDUYN9IH00dGRnAqrtMPNYZL2sg0p/UOTGVAdYeqpIzS7CvWZ2YygBLzJW+YzYTK9g32KfSnDjnB1YfqrJvHSfYN9of0k7vFmaLCFgW1MFDERGG7eEK1/sb96oAwhp0F6mzi421VmDz9HUdD7kDhldmAkVY2Y2RCbmXNCe9W7S5FfBrWAdTA8+XliIE++7SuDcFENlc6Rbl3W9pj5M1sHVMdcTvG+DX6k5591naA2UNbP2FmQoguFPSHZR3h6U95KLpVjnuhwKI7pT0Zw4e71CebJb2qFfEzmqJ6AHAxbq738VIm8uP4bIGvhklogcAL+vun8rBUcc5lFqHu2H/oBRL7oDD6q7U+Ri+T13SWgT7rtdLLLkD6/T6Y439znM0OmoPFux7a04cpwLeLjNdKU2373NvdB7j8NTCwr/N6L8Z8Mr/QRm370ezTXu4YN9bozhOBbxXd6X2VFgztWab9qhZA99UErdTAffVXSr7qbBj6ivZFSaBbefjoBT/TyJgsLpLlZH6Pg+NDIsY7HtjSuI4FQhT3S3U96k3XdljBvveaiTxBBMQqLpLZTsWf+VkehoTPGvg2lEbqAsgOweZkg7DVOxtPh4Mn6CGDvbdZcVdsrqUBWRU3SVV7bHYz6kzGh2TRbDvjUbsQQJhq7ukuhvnYnNj3xiNF8gpa+DaKLEHCYSu7pKqdsMRzTx66NhzyBq4NiexBwnEr+6SUt0dp7fX9b4xP2PPIth3n6GM8vnwARxV97NUt8NYvMPp2Dmq6+GDfX86SiIPEgiUALy0xHfjWKwzjX1XW192vJEyyBr4MZThAhOQX3X/qPF11x3HcWFNH7vuULtq1gO8OLtSLXGBCci3un+p/6+7GL8M3dmhrmsPizC5Zw1c60XjDgR7NRu5Zg1cOYnGHaC6R5fXsP1sriSSB4BNTO4OHKPKIdj37sYWLzABrponkDXwm0E07oDD9gmLpb7I0CnRuAObaoXnCPb19M1I4w54XomMI5dg358a0bgDbj+QQdbAA71o3AGWZqLKKNj3h1E07sAeZttPiQaVUbDvD1PSRpoCwDedsK863x5zriQupwI7GRi876nMLmvgSiOJVBlgLycG71cI9nW5fEvjDjB4f4KsAaert9keUAMM3hch2NdhFCQvpwJPjAzeRbCv20sVNO7AQ3MtkDWwnbnUZsoCAKOZu8ga8LsEKWX+TQQwmnmMYN/C5ZupBA8AjGYeI9i3KDznS/OnE/hVL5A14Ky2c38J4ELT/upTgVYbSrkfZwDLzDzhQbCvn8tLrEECyx05VyVrwE9tZw0SII1gZwfmBWeDxGkqsADNuw8ZB/veq+3EuAO/onl3IPesgevazmkqsBTNu3UM2/ep7eIKAUDzfo1g36KIUNurAsDrjqVAsK/h2i4uEQDsvH8ga+AiRG1vCwBcWL0g2PeT78yBs5IfG1iv52CVYF+btZ0Vd+CfzAeBrIFVtZ0Vd8C0kdnMAomMk3tvc/BuKmAZsxmCfa3VdvGdBLA3c0bWwBXHb2EzlAHea+KVpodKsga+OSYxlAH8YPROsO8ig8RQBnBl4MrqrYbS/mBNhqf1ADfmjpPVnxJX4O89ss71JcAXyjvpvs+cSp1xfQnwh0tNRJwsOErl2VTAn4ny/kPNlOCi1QeCfgGXKO8M3p+N23l9CXCL8s6TQD+MSfvgjAPY1NRytMpK5Jden9iCBHxjc+abMufRzP/Yu7vltGEggMLraWgCM0xmbcu2bCT0/k9ZoCTNDwQMFCzpfI+QixNmvZKC0T22IHGupWCyQs+xJkYz30cyvKyH05bEfeIGLiVga6bTHf6BgrgnxTWKvTLHK098rXsM3EHc08K31Zzvde/1furs/roJI+5xCExn3lR5HY1fG/2A4wQYEfeFIAqOzfe9LqOfl32p/7DhjhEWMhdEgt2Z3H68f/3Zzh0+ON+cuEfFt0zf8znRZEu9JyNICXGPTRh4jy+Pe4BdrR9xeglj4/5bEJk145kNk/b1VqHTz/iYinFmMhPEx3f0XVN+W3Uo9TM+poK454Lxu1apHmnyRr/jfQ6MjPsvQaxWbe6/302Ks4TQ6jecTMVYv6QQRCz7+Ux6J1ZtqQdwMhUjFcQ9er7P+vRqmdbofaj0/sqk/oR4j/urIHZhyHkAX6XzLdAZPYBFGYz3WkjB5TJp8DbfBfhE8u6NPkSq36XztiTuKQmrLtcJjYn/RoJ1q4exBIkL484R1aRkG/jI83407dwog4vMiXuKwirLEU3EeT+edpYgcXncnwUp8n1b6wOYrtZjmL1f8NYWt4XhEs+FFBxRTZi7a+FNN3gRCbUeRt7Hb8iw4I7LzAopngRp84M1lf5XdWNXa3kTKv0Ze++n99ppO67yVEjBKaY8uME2td5aaVq78vKFL/WR2lj2toMt9WcsuONCBXHPTHCDbU2lV6tNZ1dO9iZWdzUxTGdcq8fRdlwfdxbdcxSc621nTK2jGNNYOzgvp3h9sMpO+773E0+e03ZcZ0ncIeI2ervRmQPs1uCcGxfLQR+ume7Jy1P3NdN23CLuLLrjTLHVXcvOyyWyeElruv/6cAPzXdxfBEiz7qp1v5YpCUOj5+DSAVzlZRt3Ft2Rct1VzRBkIlbnjGNoO64328adRXckXnfV5lTf8yo7bU/f0zbu7EIi/bo/ej4ThqbUs9B23EKxizvPdSCHuqvWnZNH8L3Rc9F23MLrLu7sQiKXuquWzbCWewrjXjGn7biJ5T7uCwEyqftG1b4HPsu79Wl7Bha7uLMLiczq/jfwPsew0/ZMvOzizi4kMqz7RmmsC/KHvXvRThUGAiia0Wq1ahUoakDU///K6+3D+uJlETPk7I84K2uYhAfIkmUUOCrU+0cT1DD4jnvPAB7W/b/o+FhxE/aZXTl6YOfNAa/0vuMuCwN4WvdP8cpmf8veLrPrOAwcR9s9sZADI6zL4NE2zlfvUxSvbJrtakZ9Y9ex06d12u6f2VfcWZdBY1x93z2442Vjmx3sb85eDqy1y9j9ozr/XfLT21fcWZcBdS8VKTmc03YcjL7izroMWrDTH0fllrTdH4OvuLMugzbsqftTrQz80fuOO6/LoA37ZYCnsQb+mMtv3KcGeLhVgFxcS0Vjpse486c9tCMJcBMrkGjS+CTuQwO0INW+NKPSB233zPAk7n0DfGIlsnNYgfRO/yfuPECAI1YiO4c1Ge8s5JMRvqjiiKWZzkkMfDP9iTtfVNGudYAjXvhF48bHuHNHFWf4rNoZHzsD/wyOceeOKlq2dfZfFt3CiwN+6p3FXd4N0Jp9HIBxOx7iXc7jPjHAKQbvyjFu99XkIu6vBrjEDzz0YrvdW68XcX8xQKu2bLw/0NrAVy+/cecaE55iz0NijxJuDHy1kN+4c40JediJVIkNSJ9Nz+LOr/ZwA6MZpXi73Wuj37gzdEcRtmaUYUvGcy+/cWfojgJszSjDxSXPLeSHEYbuKMKFJk1CLi75bnoSd4bueLKEwztfUtGQ0UncGbqjGN9VteBLKszLSdwZuuP5bAD+pocmR+5ihKE7ynB4V4BjOw6mp3Fn6I5yHN4dx7Edn0aXcecv2SjG4d1tHNvxpX8z7jI3QC4O786KObbjy1xux/3NAE+1Zeed3Xb8wVtO3IcGKMbOu3OW7LbjaJgTdzHAs+2XAaqLeNwXJ+Q87ixDwikZv8+uzPKSDE5ML+LOMiQcY5nNVBIzkcGZ0UXcWYaEa3bMZpjIoL5+btzl3QBOyFh6Lxay2o5L73IRd5YhUR97M8+1YiKDK2/XcedlSDhoz50mbi2hjperuHNJFW7arQJci/iRHm6ZS1HcJwZwSMaV1UtRaoBbJtdx55Iq3MWX1TMhm+3IM7wVd/7YAXelXGoi7Si3kHNGmMvAdeSdtKPU5CruzGXgPvIeBGvSjiLDq7gzl4EGnuedUztqTmXECHMZ6OBx3kk7Sk2u485cBlp4mnfSjgqG13FnLgM9Nv7tvUcpaUe5udyMO+/LQI3MrwcjY64soZK323HnfRkoslt586TYiocGUNHL7bjzvgxU2Sc+DN/DNS8/oqq5VIn72ACu6/zwnVE76hjnxp3/MUGbTk9nmMegnn6luMvMAArs024+KhYlHNpRz0yqxf3VADpsu3d859CO+l4rxr3Hqjv0SLu0G/nBpB13WPTy4s4TBNBs15HlmYj1GNxnIlXjPjCAKtu19r6HjGNwt0Fe3Fl1RwdsFI/fw9XGAPeaS/W4jwygj86+U3b80ahG3HsGUElb3yk7/q6XF3c+qaJT9MzfozVzdvzdRPLizidVdM0ucX8/Mk7YjUEjBrlx55MqOmi/cfgAH6037LOjIXMpiDu3VNFJu3QZBq4JlylHdjTotSju3FJFZ20ThwIfLpOtAZq06OXHnU+q6LhtsoqCZ4tWhB0PMJHiuPPwLzput1nHwbPElhk7HqRfEnce/oUPtmnrhY/XKQd2PM5MiuLONiR8sk1tHAWPFy3thk+neLBBYdzZhoR/sgcm/mNpU64noQ1zKYw725Dw1TazNo6DhoTx0iYZp3W05/WuuAvbkPBFliV2HcdhcI8ojq1NM0braN1C7ov72AC+2WZZaq1dxwc5c5v4v6U9yDLO6XimcVncucgEAOosemVx5yITAKgzkbK4c5EJANTpF8edozsAKDSRIkY4ugOAQv0/xF2mBgDgoKlUiDtvEACALoNKcef5MADQZCbFjHB0BwB1BqVx5+gOANrMpIQRju4AoM2gPO4c3QFAmZmUMcLRHQCUGVSIO0d3ANBlJhXjzjVVANCjXznuvDADAFpMpJwRju4AoEq/Utw5ugOAJhOpFXd+yQQACix6NePO31QBwH1jqcIIR3cA0GPRazDu8o+9u81pI4bCMOp3SggE8rH/1VaqRIsKgYzHQ+5I5yzi+WFfX+8bAAXsMzLuOTcA7u6cWXG3hABgC3bz4m4JAcAGHDMr7l4yAWzBr+Fxz6EBcFeHzIq7cUiADbhM8+JuHBJgA/ZZI+45NQDu5pSZcTcOCVDfrifutkMClPaSmXF3pwpQ3mWaG3d3qgDl7dMRd+9UAUo7Zs24PzQA7uChO+6+7QCo6jm9cbf7F6Cqc7ribtgdoLJdd9wtEAOo6pD14z45mAH4UeepJ+4OZgBK2+Un4p7XBsAfNQ9lkpY4mAEo7Dz1xd3BDEBhu/TG3cQMQFWH9GiJgxmAss5Tb9wdzACUtUsWxd2OGYB6ntOn5T0fqgJUckqnlk4PfmUCWNnlIZ1aej01AFb1lF4tbzxUBajlNd1a/jEPCXCzslOQH+NuHhLgZlWnID+Ju3lIgNvUnYJcHvccGwCrOGaJliUm85AAq7hMWaLlA8fuAN+ofeB+Je6O3QG+Uv3A/WrcTbsDXFd6wv3ruJt2B7im9IT7N3G3ZAbgc4VXygyMe/YNgIH2WazlOp/uAXxU9GO9OXH3lgngP8VfL90Yd5eqAO9s4TL1pri7VAX4axOXqePinscGwACP6dAXd/8yAbwp+/fSOnHPSwNgoZcM0jLKqQGwyCmjtIwyqTvAIqcp3frjbmQGYAODMrPjru4A22h7WuawZQag8EaZ/rirO0D9tnfE3UAkQOEhyP64qztA7banpYcNkQAFNkGOj7txd4ACA+6j467uAHXbnpZe6g5Qte1p6ecxE0CBx0vj467uAAXaPj7u6g5QoO3j467uAAXaPj7u6g5QoO3j467uAAXaPj7u6g5QoO3j467uAK39bu9OkOO2oQCIojnEcBsOef/TxpWyEkvW2K4oxNrvEF2/PkAwU9uvjLt1l6Rcbb807tZdkjK1/dq4W3dJytP2i+Nu3SUpS9uvjrt1l6S8bSdwsfEIkqR3niMXC1zEF4Al6YXnwNUCV7HukpSr7QSuN/hfVUn6xz5wvUAKW5Ak/W0jhcDVrLskpW47gTSmIEkKE2kEUrDukvTNOZFIIAk/Z5KkcI6kEkhm9EqkpK49R5IJJOKFd0mdew6kE0jGSzOSeraRUiCpOUhSl2aSCqR191hVUofOO2kFUvKVSEldOkYSCyTlSzOSOrQPpBZIbw2S1JGV9AIZTC7eJXXjnMggkJyLd0kdOUZyCGQxPIIkdeAxkEUgkyVIUvMWMgnkEl28S2rcGcklkId3IiU1bx/IJpCLqxlJbVvIKJBT9NaMpEYdkZwC+XhrRlKzHgNZBTKbPVeV1JxzJrNAVv6gSVKDniO5BTLzXFVSaxbyC+TmuaqkphyRAgRKMPhQpKRGrAMlCBTA4V1SI45IGQIlcHiX1IR1oBCBMji8S6reESlGoBAO75Iqtw6UI1AMh3dJFTsiJQkUxDvvkmq1UJZAYW4+BCypOvuNwgTK4u+zJVXnnChLmXH3YFVSVdaBwhQadxjdzUiqxD5SnGLj7m5GUh3OiTKVGncG781IKt4yUKhi4w43/9IkqWiPG8UqOO4Q/Y+HpGI9IwUrOu4w+cmqpCIdpS7bAcqPOyyerEoqzrlQuOLjzmDeJZXlLPccFQCqiDvctiBJxdgKPkcFgEribt4l/QnT/qaauJt3Sb9j2v9VUdzNu6RfMe0/qiru5l3SK6b9vcribt4lfca0f1Rd3OG2ejFSUnLnWlfa64u7994lvee99p9VGXcfJZD0o+4fGvhErXGH6N88JCWxF/082Av1xh1um9sZSRc7KztFfVNz3GGY3c5IutAx17dqB4C64w7c/Z+HpIs87tSs7rjDbXF8l/S/O5Zq9zEADcTd8V2SQ/tHbcTd7bskN+3vtBJ3YPTLVUlfd64jbWgl7sDdh2ckfcnWwDoGgLbiDsPk+l3Sf/SYmljHANBa3O27JMsONBh3+y7JsrcZd2CYfJxA0p84txbL3mzcAeLq/UhJv3Sslb4K9jtNxx24zS5oJL3wmGv/CPW11uMOcF+fQZLeea4NXXr8RA9xB4Zpc0Mj6buj1S37DzqJO8DNwEsKxzY1vYt501HcAYb76g+cpG7t672HiR2AzuIOQJwd4aXeHNvc7rWYz/QYd4AhLg+PWaUuPB9L7GlgB4Be4w4AcVp3P3WSmnXu69TdvP5d33EHYIjzsrunkZpy7Mvc57j+xri/GeO87J62SpXb92WOrTzI/hXG/aMY52XdHeWlmhz7vi5z7HgF8xPj/toY431Zlm3/xsNXqSjP/ZttWZZ7dE5/5S/eUHMK4fY4eAAAAABJRU5ErkJggg==;labelPosition=right;align=left;" vertex="1" parent="1">
          <mxGeometry x="780" y="200" width="40" height="40" as="geometry" />
        </mxCell>
      </root>
    </mxGraphModel>
  </diagram>
</mxfile>
